<svg id="Layer_1" data-name="Layer 1" xmlns="http://www.w3.org/2000/svg" viewBox="0 0 400 236"><defs><style>.cls-1{fill:#4d6373;}.cls-2{fill:#c4d600;}.cls-3{fill:#fff;}</style></defs><title>icon-wide-on-white</title><rect class="cls-1" y="113" width="400" height="10"/><circle class="cls-2" cx="200" cy="117.12" r="113"/><path class="cls-1" d="M200,236A118,118,0,1,1,318,118,118.13,118.13,0,0,1,200,236Zm0-226A108,108,0,1,0,308,118,108.12,108.12,0,0,0,200,10Z"/><path class="cls-3" d="M183.61,78.32v79.36a4.22,4.22,0,0,1-8.43,0v-23.4h-16.6a2.33,2.33,0,0,0-2.33,2.33v10.24a2.34,2.34,0,0,1-3.74,1.87l-38-28.51a2.34,2.34,0,0,1,0-3.72l38-29.19a2.34,2.34,0,0,1,3.76,1.85V100.1a2.33,2.33,0,0,0,2.33,2.34h16.6V78.32a4.22,4.22,0,0,1,8.43,0Zm101.86,37.47-38-28.51a2.34,2.34,0,0,0-3.74,1.87V99.39a2.33,2.33,0,0,1-2.33,2.33h-16.6V78.32a4.22,4.22,0,0,0-8.43,0v79.36a4.22,4.22,0,0,0,8.43,0V133.56h16.6a2.33,2.33,0,0,1,2.33,2.34v10.95a2.34,2.34,0,0,0,3.76,1.85l38-29.19A2.34,2.34,0,0,0,285.47,115.79Z"/></svg>